<svg xmlns="http://www.w3.org/2000/svg" width="17" height="18" viewBox="0 0 17 18"><g><g><path fill="#dea101" d="M15.91 12.915a2.029 2.029 0 1 1-2.029-2.028 2.038 2.038 0 0 1 2.028 2.028zm1.016 0a3.044 3.044 0 1 0-6.089 0 3.044 3.044 0 0 0 6.089 0z"/></g><g><path fill="#b2b2d9" d="M16.547 8.329l.062.037zm-.138-.077l.063.034zm-.139-.072l.062.03zm-.14-.068l.059.027zm-.14-.063l.053.023zm-.14-.058l.045.018zm-1.302-.336l.078.01zm.18.026l.057.01zm-.262-.036zm-.29-.023h-.01zm-.01 0l-.03-.002.03.002zm-3.133.806a1.49 1.49 0 0 1 1.391-2.016c.724 0 1.327.516 1.46 1.2h-.01c-1.043 0-2.017.3-2.84.816zm-1.5 7.657l.009.012zm-.009-.012l.009.012-.009-.012zm.145.192a6.296 6.296 0 0 1-.03-.038zm-.251-.347l-.01-.014v.426a7.286 7.286 0 0 1-1.976 0v-4.778a.514.514 0 0 0-1.028 0v4.576a9.682 9.682 0 0 1-.576-.192v-2.208a.514.514 0 0 0-1.028 0v1.73a7.737 7.737 0 0 1-1.377-1.001v-1.895a.514.514 0 0 0-1.028 0v.742a7.931 7.931 0 0 1-.576-.952v-.644c0-.715.58-1.291 1.292-1.291h1.698c-.005.062-.01.125-.01.187v1.386a.514.514 0 0 0 1.029 0v-1.386c0-.715.58-1.291 1.291-1.291h2.602c.076 0 .15.007.223.02a5.328 5.328 0 0 0-1.419 3.628c0 1.093.329 2.11.893 2.957zm.526.67l-.029-.032zm.296.296l-.023-.021zm.135.121l.003.003zm.003.003l.01.008-.01-.008zm-.308-.288l.003.002zm.003.002l.003.004-.003-.004zm-4.17-8.821a1.49 1.49 0 0 1-1.487 1.488A1.49 1.49 0 0 1 2.927 7.9a1.488 1.488 0 1 1 2.977 0zm4.005-1.104c0 .817-.67 1.488-1.488 1.488a1.49 1.49 0 0 1-1.488-1.488A1.49 1.49 0 0 1 8.42 5.308c.822 0 1.488.67 1.488 1.489zm-8.746 3.655zM1.019 9c0-1.055.153-2.91 1.475-4.425a7.475 7.475 0 0 1 2.56-2.163 7.296 7.296 0 0 1 3.362-.809c3.722 0 6.808 2.764 7.32 6.344l.007.002a5.299 5.299 0 0 0-.855-.24l.04.008a2.519 2.519 0 0 0-2.508-2.333c-.603 0-1.17.21-1.627.6a2.506 2.506 0 0 0-2.377-1.7 2.506 2.506 0 0 0-2.378 1.7 2.487 2.487 0 0 0-1.627-.6 2.519 2.519 0 0 0-2.516 2.517c0 .58.197 1.135.563 1.582a2.3 2.3 0 0 0-1.296.97A7.549 7.549 0 0 1 1.019 9zm14.724-1.05h0zm1.082.55C16.565 4.09 12.896.58 8.42.58a8.354 8.354 0 0 0-3.835.925 8.449 8.449 0 0 0-2.815 2.33l-.014.016C.286 5.691 0 7.798 0 9c0 4.644 3.776 8.42 8.42 8.42.734 0 1.447-.095 2.127-.272l-.027-.022a8.347 8.347 0 0 0 1.612-.601 3.966 3.966 0 1 1 4.594-6.32 8.475 8.475 0 0 0 .072-1.721c.01.005.018.011.027.017zm-.143-.09l.061.038"/></g></g></svg>