<svg xmlns="http://www.w3.org/2000/svg" width="18" height="18" viewBox="0 0 18 18"><g><g><g><g><path fill="#b2b2d9" d="M8.163 1.457a2.71 2.71 0 0 1 2.72 2.721A2.71 2.71 0 0 1 8.164 6.9a2.71 2.71 0 0 1-2.721-2.72 2.71 2.71 0 0 1 2.72-2.722zm0-1.36A4.092 4.092 0 0 0 4.08 4.178 4.092 4.092 0 0 0 8.163 8.26a4.092 4.092 0 0 0 4.081-4.082A4.092 4.092 0 0 0 8.163.097z"/></g><g><path fill="#b2b2d9" d="M6.122 9.62A6.124 6.124 0 0 0 0 15.742v1.36c0 .376.305.68.68.68h7.38a.68.68 0 1 0 0-1.36h-6.7v-.68a4.736 4.736 0 0 1 4.762-4.761h2.732a.68.68 0 1 0 0-1.36z"/></g></g><g><path fill="#dea101" d="M14.653 13.704a.622.622 0 1 1-1.244-.002.622.622 0 0 1 1.244.002zm.982 0c0-.885-.72-1.604-1.604-1.604-.884 0-1.603.72-1.603 1.604 0 .884.72 1.604 1.603 1.604.885 0 1.604-.72 1.604-1.604zm-3.092 1.644l-.006.001a.493.493 0 0 0-.227.08l-.512.3a.253.253 0 0 1-.33-.07 3.228 3.228 0 0 1-.4-.688.25.25 0 0 1 .105-.32l.519-.298a.493.493 0 0 0 .246-.466v-.006a1.315 1.315 0 0 1 0-.34v-.005a.493.493 0 0 0-.246-.467l-.52-.297a.25.25 0 0 1-.104-.322c.105-.245.24-.476.402-.688a.252.252 0 0 1 .327-.068l.506.301a.492.492 0 0 0 .524-.023c.093-.062.19-.118.292-.166.17-.08.28-.254.28-.442v-.602a.25.25 0 0 1 .224-.25 3.286 3.286 0 0 1 .796 0 .25.25 0 0 1 .223.251v.586c0 .188.11.362.28.443.1.047.2.103.29.164a.49.49 0 0 0 .527.024l.515-.3a.25.25 0 0 1 .33.068c.16.212.295.443.4.689a.25.25 0 0 1-.105.32l-.52.297a.493.493 0 0 0-.245.467v.006c.015.112.015.226 0 .34v.005c-.015.19.081.372.246.467l.52.297a.25.25 0 0 1 .104.322c-.105.244-.24.475-.402.688a.251.251 0 0 1-.328.067l-.516-.3a.492.492 0 0 0-.524.023 2.286 2.286 0 0 1-.292.165.494.494 0 0 0-.28.443v.601a.25.25 0 0 1-.225.25 3.283 3.283 0 0 1-.795 0 .25.25 0 0 1-.223-.25v-.602a.494.494 0 0 0-.28-.442 2.28 2.28 0 0 1-.29-.164.49.49 0 0 0-.28-.089zm1.507 2.555c.165 0 .331-.009.496-.026a1.231 1.231 0 0 0 1.09-1.233v-.16l.137.08a1.233 1.233 0 0 0 1.607-.325c.209-.276.384-.578.519-.897a1.233 1.233 0 0 0-.518-1.557l-.141-.081.14-.081c.544-.312.767-.982.519-1.557a4.2 4.2 0 0 0-.519-.897 1.233 1.233 0 0 0-1.607-.325l-.138.08v-.16a1.231 1.231 0 0 0-1.088-1.233 4.252 4.252 0 0 0-1.03 0 1.231 1.231 0 0 0-1.09 1.232v.162l-.137-.08a1.232 1.232 0 0 0-1.607.324c-.21.276-.384.578-.519.896a1.233 1.233 0 0 0 .518 1.558l.14.08-.14.082c-.541.311-.764.98-.518 1.553.135.32.31.621.519.897a1.233 1.233 0 0 0 1.607.325l.138-.08v.16c-.005.63.464 1.16 1.089 1.233.17.02.343.03.514.03z"/></g></g></g></svg>