<svg xmlns="http://www.w3.org/2000/svg" width="15" height="18" viewBox="0 0 15 18"><g><g><path fill="#dea101" d="M2.313 18a2.441 2.441 0 0 1-2.438-2.438V2.439A2.441 2.441 0 0 1 2.313 0h9.374a2.441 2.441 0 0 1 2.439 2.439V9a.564.564 0 0 1-1.128 0V2.44c0-.723-.588-1.311-1.31-1.311H2.312c-.722 0-1.31.588-1.31 1.31v13.124c0 .723.588 1.31 1.31 1.31h2.813a.564.564 0 0 1 0 1.128z"/></g><g><path fill="#dea101" d="M12.06 13.687a2.25 2.25 0 0 1-2.248 2.249 2.25 2.25 0 0 1-2.248-2.249 2.25 2.25 0 0 1 2.248-2.248 2.25 2.25 0 0 1 2.249 2.248zm1.128 0a3.38 3.38 0 0 0-3.376-3.376 3.38 3.38 0 0 0-3.375 3.376 3.38 3.38 0 0 0 3.375 3.376 3.38 3.38 0 0 0 3.376-3.376z"/></g><g><path fill="#dea101" d="M6.643 8.225a.358.358 0 0 0 .715 0v-.447h.268c.247 0 .447-.2.447-.447v-2.56a.3.3 0 0 0-.3-.3h-.415v-.537a.358.358 0 0 0-.715 0v.537h-.415a.3.3 0 0 0-.3.3v2.56c0 .247.2.447.447.447h.268z"/></g><g><path fill="#dea101" d="M9.634 8.844a.358.358 0 0 0 .715 0V7.86h.268c.247 0 .447-.2.447-.447V4.041a.382.382 0 0 0-.382-.382h-.333v-.715a.358.358 0 0 0-.715 0v.715H9.3a.382.382 0 0 0-.382.382v3.372c0 .247.2.447.447.447h.269z"/></g><g><path fill="#dea101" d="M3.608 10.884a.358.358 0 0 0 .715 0v-.983h.268c.247 0 .447-.2.447-.447V6.082a.382.382 0 0 0-.382-.382h-.333v-.716a.358.358 0 0 0-.715 0V5.7h-.333a.382.382 0 0 0-.382.382v3.372c0 .247.2.447.447.447h.268z"/></g></g></svg>