<svg xmlns="http://www.w3.org/2000/svg" width="18" height="18" viewBox="0 0 18 18"><g><g><path fill="#dea101" d="M13.915 10.376a2.13 2.13 0 1 1 0 4.258 2.13 2.13 0 0 1 0-4.257zm3.197 2.13a3.197 3.197 0 1 0-6.395 0 3.197 3.197 0 0 0 6.395 0z"/></g><g><path fill="#dea101" d="M17.465 16.587a.53.53 0 0 1-.378-.156l-1.667-1.667a.536.536 0 0 1 .757-.757l1.667 1.666a.534.534 0 0 1-.379.912z"/></g><g><path fill="#b2b2d9" d="M12.116 4.457c0 1.142-2.236 2.414-5.444 2.414-3.208 0-5.444-1.272-5.444-2.414 0-1.142 2.236-2.415 5.444-2.415 3.208 0 5.444 1.273 5.444 2.415zM1.452 6.763c.203.137.426.267.662.385 1.228.614 2.846.952 4.558.952.692 0 1.845-.162 2.367-.242.215-.032.352.232.194.381a5.147 5.147 0 0 0-1.128 1.506l-.034.07-.077.009c-.431.05-.876.076-1.322.076-1.431 0-2.798-.265-3.847-.746C1.81 8.688 1.228 8.08 1.228 7.486v-.352a.42.42 0 0 1 .224-.371zM1.228 9.91a.435.435 0 0 1 .432.016c.144.088.296.172.454.25 1.228.615 2.846.953 4.558.953.264 0 .535-.009.805-.026l.177-.011-.026.175a5.202 5.202 0 0 0-.007 1.47l.02.152-.152.011c-.269.02-.544.03-.817.03-1.431 0-2.798-.266-3.847-.748-1.015-.465-1.596-1.073-1.596-1.668zm0 3.03a.435.435 0 0 1 .432.015 6.1 6.1 0 0 0 .454.25c1.228.614 2.846.953 4.558.953.409 0 .822-.02 1.227-.06l.101-.01.043.093c.223.484.52.93.881 1.326a.421.421 0 0 1-.326.284c-.62.11-1.267.167-1.926.167-3.208 0-5.444-1.273-5.444-2.415v-.604zm5.444 4.246c1.057 0 2.063-.125 2.99-.371a.732.732 0 0 0 .54-.703l.004-.69a.868.868 0 0 0-.252-.615A3.902 3.902 0 0 1 8.8 12.028 3.938 3.938 0 0 1 12.744 8.1h.008c.325 0 .59-.265.59-.591V4.391c-.03-1.027-.78-1.96-2.112-2.625-1.228-.614-2.846-.952-4.558-.952-1.712 0-3.33.338-4.558.952C.75 2.447 0 3.403 0 4.456v9.087c0 1.054.75 2.01 2.114 2.691 1.228.614 2.846.952 4.558.952z"/></g></g></svg>