<svg xmlns="http://www.w3.org/2000/svg" width="18" height="18" viewBox="0 0 18 18"><g><g><g><path fill="#b2b2d9" d="M16.7 1.471v13.032a.21.21 0 0 1-.21.21H7.242a.21.21 0 0 1-.21-.21V1.47a.21.21 0 0 1 .21-.21h9.248a.21.21 0 0 1 .21.21zm1.261 13.032V1.47c0-.812-.658-1.47-1.47-1.47H7.241C6.43 0 5.771.658 5.771 1.47v13.032c0 .813.66 1.47 1.471 1.47h9.248a1.47 1.47 0 0 0 1.471-1.47z"/></g><g><path fill="#b2b2d9" d="M4.557 1.602l-3.428.918A1.47 1.47 0 0 0 .09 4.322L3.461 16.91a1.472 1.472 0 0 0 1.803 1.04l1.3-.35a.63.63 0 0 0-.326-1.218l-1.301.35a.21.21 0 0 1-.257-.15L1.307 3.996a.211.211 0 0 1 .148-.257l3.428-.918a.631.631 0 0 0-.326-1.218z"/></g><g><g><path fill="#dea101" d="M12.372 5.325c.3 0 .547-.096.759-.293a.892.892 0 0 0 .305-.685c0-.27-.1-.495-.306-.688a1.058 1.058 0 0 0-.758-.294c-.3 0-.55.096-.764.295a.9.9 0 0 0-.31.687c0 .27.102.493.309.684.214.198.464.294.765.294zm-.778 7.284c.324 0 .609-.041.847-.124.24-.084.554-.201.937-.351v-.002c-.166.04-.32.06-.458.06-.358 0-.615-.066-.786-.204-.184-.15-.277-.402-.277-.751 0-.124.02-.297.059-.512.037-.212.08-.405.13-.574l.561-1.99a2.8 2.8 0 0 0 .103-.55c.025-.265.029-.384.029-.43 0-.34-.114-.608-.35-.818-.24-.215-.6-.323-1.071-.323-.272 0-.566.05-.876.148-.287.09-.593.2-.91.326v.004c.156-.041.31-.062.46-.062.373 0 .631.074.791.226.163.156.243.395.243.73 0 .162-.02.338-.057.522a9.557 9.557 0 0 1-.132.564l-.562 1.988a5.718 5.718 0 0 0-.103.532c-.021.151-.032.303-.032.451 0 .33.119.595.362.809.25.22.618.331 1.092.331z"/></g></g></g></g></svg>