<svg xmlns="http://www.w3.org/2000/svg" width="18" height="18" viewBox="0 0 18 18"><g><g><g><path fill="#92a0ba" fill-opacity=".3" d="M4 18a4 4 0 0 1-4-4V4a4 4 0 0 1 4-4h10a4 4 0 0 1 4 4v10a4 4 0 0 1-4 4z"/></g><g><path fill="#b2b2d9" d="M10.696 4.616a.545.545 0 1 0 0 1.09.545.545 0 0 0 0-1.09zm0 2.291c-.742 0-1.391-.462-1.64-1.145H4.6a.602.602 0 0 1 0-1.203h4.455a1.741 1.741 0 0 1 1.64-1.145c.742 0 1.39.462 1.64 1.145h1.063a.602.602 0 0 1 0 1.203h-1.063a1.741 1.741 0 0 1-1.64 1.145zM7.434 8.163a.545.545 0 1 0 0 1.09.545.545 0 0 0 0-1.09zm0 2.29c-.743 0-1.391-.461-1.64-1.145H4.6a.602.602 0 0 1 0-1.202h1.193a1.741 1.741 0 0 1 1.64-1.146c.742 0 1.39.462 1.64 1.146h4.325a.602.602 0 0 1 0 1.202H9.074a1.741 1.741 0 0 1-1.64 1.146zm1.92 1.843a.545.545 0 1 0 .001 1.09.545.545 0 0 0 0-1.09zm0 2.29c-.742 0-1.39-.461-1.64-1.145H4.601a.602.602 0 0 1 0-1.202h3.113a1.741 1.741 0 0 1 1.64-1.146c.742 0 1.39.462 1.64 1.146H13.4a.602.602 0 0 1 0 1.202h-2.405a1.741 1.741 0 0 1-1.64 1.146z"/></g></g></g></svg>