<svg xmlns="http://www.w3.org/2000/svg" width="19" height="20" viewBox="0 0 19 20"><g><g><path fill="#b2b2d9" d="M9.437 20.097c-1.951 0-3.539-1.576-3.539-3.514 0-.388.317-.703.708-.703.39 0 .708.315.708.703 0 1.163.952 2.108 2.123 2.108a2.118 2.118 0 0 0 2.124-2.108c0-.388.317-.703.707-.703.391 0 .708.315.708.703 0 1.938-1.587 3.514-3.539 3.514z"/></g><g><path fill="#b2b2d9" d="M17.223 17.286H1.651c-.91 0-1.651-.736-1.651-1.64 0-.48.21-.934.578-1.246a.564.564 0 0 1 .072-.054 6.28 6.28 0 0 0 2.181-4.753V6.979A6.527 6.527 0 0 1 7.897.607a.702.702 0 1 1 .325 1.368A5.124 5.124 0 0 0 4.247 6.98v2.614a7.682 7.682 0 0 1-2.78 5.906.23.23 0 0 0-.051.147c0 .127.107.234.235.234h15.572a.238.238 0 0 0 .236-.234.221.221 0 0 0-.052-.146l-.038-.031a7.682 7.682 0 0 1-1.984-2.568.7.7 0 0 1 .336-.936.71.71 0 0 1 .943.334c.374.785.9 1.475 1.563 2.05a.748.748 0 0 1 .07.05c.367.313.578.767.578 1.247 0 .904-.74 1.64-1.652 1.64z"/></g></g></svg>