<svg xmlns="http://www.w3.org/2000/svg" width="14" height="14" viewBox="0 0 14 14"><g><g><g><g><path fill="#f7931a" d="M13.79 8.789A6.999 6.999 0 1 1 .21 5.402 6.999 6.999 0 0 1 13.79 8.79z"/></g><g><path fill="#151429" d="M8.57 6.084c-.217.868-1.554.427-1.988.319l.383-1.534c.433.108 1.83.31 1.604 1.215zM8.331 8.56c-.238.954-1.844.438-2.365.31l.422-1.692c.521.13 2.19.387 1.943 1.382zm.215-4.228l.315-1.262-.768-.191-.307 1.229a32.1 32.1 0 0 0-.615-.145l.308-1.237-.768-.191-.314 1.261a25.156 25.156 0 0 1-.49-.115v-.004l-1.06-.265-.204.82s.57.131.558.14c.311.077.368.283.358.446l-.358 1.438c.021.005.049.013.08.026-.026-.007-.053-.014-.082-.02l-.502 2.013c-.038.095-.134.237-.352.183.008.011-.558-.14-.558-.14l-.382.88 1 .25c.186.046.368.095.548.14l-.318 1.277.767.191.315-1.262c.21.057.413.109.612.158l-.313 1.257.768.192.318-1.274c1.31.248 2.294.148 2.71-1.037.333-.954-.017-1.504-.707-1.863.502-.116.88-.446.981-1.128.14-.932-.57-1.433-1.54-1.767z"/></g></g></g></g></svg>