<svg xmlns="http://www.w3.org/2000/svg" width="16" height="16" viewBox="0 0 16 16"><g><g><g><g><g><path fill="#f0b90b" d="M8 1.103l1.735 1.776-4.367 4.368-1.735-1.735z"/><path fill="none" stroke="#f0b90b" stroke-miterlimit="20" stroke-width=".04" d="M8 1.103v0l1.735 1.776v0L5.368 7.247v0L3.633 5.512v0z"/></g><g><path fill="#f0b90b" d="M10.633 3.736l1.735 1.776-7 7-1.735-1.734z"/><path fill="none" stroke="#f0b90b" stroke-miterlimit="20" stroke-width=".04" d="M10.633 3.736v0l1.735 1.776v0l-7 7v0l-1.735-1.734v0z"/></g><g><path fill="#f0b90b" d="M2.735 6.369L4.47 8.145 2.735 9.879 1 8.145z"/><path fill="none" stroke="#f0b90b" stroke-miterlimit="20" stroke-width=".04" d="M2.735 6.369v0L4.47 8.145v0L2.735 9.879v0L1 8.145v0z"/></g><g><path fill="#f0b90b" d="M13.266 6.369L15 8.145l-7 7-1.734-1.734z"/><path fill="none" stroke="#f0b90b" stroke-miterlimit="20" stroke-width=".04" d="M13.266 6.369v0L15 8.145v0l-7 7v0L6.266 13.41v0z"/></g></g></g></g></g></svg>