<svg xmlns="http://www.w3.org/2000/svg" width="18" height="19" viewBox="0 0 18 19"><g><g><g><path fill="#b2b2d9" d="M12.593 8.497a3.006 3.006 0 0 1 3.003 3.002c0 .547-.15 1.08-.437 1.548a2.947 2.947 0 0 1-2.566 1.455 3.002 3.002 0 0 1-2.565-1.464l-.003-.003a2.898 2.898 0 0 1-.434-1.536 3.006 3.006 0 0 1 3.002-3.002zm0 7.638c1.626 0 3.144-.86 3.961-2.24.441-.722.675-1.55.675-2.396a4.64 4.64 0 0 0-4.636-4.635 4.64 4.64 0 0 0-4.635 4.635c0 .857.23 1.682.666 2.386a4.634 4.634 0 0 0 3.97 2.25z"/></g><g><path fill="#b2b2d9" d="M11.17 12.3a.818.818 0 0 1 0-1.633h2.855a.817.817 0 0 1 0 1.633z"/></g><g><path fill="#b2b2d9" d="M12.593 13.755a.818.818 0 0 1-.816-.817v-2.846a.818.818 0 0 1 1.633 0v2.854a.814.814 0 0 1-.817.809z"/></g><g><path fill="#b2b2d9" d="M14.034 2.082c.445 0 .807.362.807.807v1.785c0 .396-.292 1.003-.545 1.269l-1.11.982a4.64 4.64 0 0 0-5.227 4.599c0 .84.234 1.665.674 2.385.28.466.649.886 1.072 1.221-.05.224-.21.48-.33.551l-.004.002-1.127.725a.804.804 0 0 1-.42.116.885.885 0 0 1-.428-.112.793.793 0 0 1-.416-.7v-4.301c0-.819-.436-1.723-.868-2.257l-.005-.006-3.105-3.266c-.29-.29-.5-.832-.5-1.055V2.954c0-.439.275-.794.65-.872zM7.81 18.145c.464 0 .914-.128 1.306-.372l1.106-.713c.708-.419 1.13-1.39 1.13-2.087v-.274c0-.28-.145-.54-.39-.696a2.874 2.874 0 0 1-.935-.96 2.953 2.953 0 0 1-.435-1.544 3.006 3.006 0 0 1 3.002-3.002c.235 0 .45.025.638.074l.005.001.005.001a.82.82 0 0 0 .724-.186l1.453-1.283.006-.006c.517-.535 1.04-1.544 1.04-2.44V2.873a2.443 2.443 0 0 0-2.44-2.44H3.3C1.933.433.861 1.54.861 2.953v1.874c0 .695.404 1.616.96 2.19l3.048 3.2c.223.276.47.837.47 1.186v4.301c0 .89.467 1.684 1.25 2.124.372.207.794.317 1.222.317z"/></g></g></g></svg>