<svg xmlns="http://www.w3.org/2000/svg" width="71" height="71" viewBox="0 0 71 71"><g><g><g><path fill="#efed9f" d="M.5 35.5c0-19.33 15.67-35 35-35s35 15.67 35 35-15.67 35-35 35-35-15.67-35-35z"/></g><g><g><path fill="#af875a" d="M49.183 21.803v7.024a1.326 1.326 0 0 1-1.317 1.317H21.525a4.826 4.826 0 0 1-4.83-4.822v-.007c-.003-.26.02-.519.07-.773a4.819 4.819 0 0 1 4.76-4.057h26.341a1.326 1.326 0 0 1 1.317 1.318z"/></g><g><path fill="#ffbe40" d="M42.036 29.828a1.323 1.323 0 0 1-1.194.755H21.525a1.301 1.301 0 0 1-1.212-.808 1.322 1.322 0 0 1 .28-1.44l9.185-9.184a3.161 3.161 0 0 1 2.3-.896c.618.025 1.213.24 1.704.615.196.14.374.305.527.492l7.551 9.061c.32.398.387.941.176 1.405z"/></g><g><path fill="#ffdf40" d="M33.782 18.87c-.285 6.559-5.692 11.726-12.257 11.713a1.301 1.301 0 0 1-1.212-.808 1.322 1.322 0 0 1 .28-1.44l9.185-9.184a3.161 3.161 0 0 1 2.3-.896c.618.025 1.213.24 1.704.615z"/></g><g><path fill="#59abff" d="M50.817 29.846c-.23.448-.69.732-1.195.737H33.817a1.301 1.301 0 0 1-1.211-.808 1.323 1.323 0 0 1 .28-1.44l7.394-7.393a2.882 2.882 0 0 1 2.002-.878c.11-.015.222-.021.334-.018.87.053 1.678.467 2.23 1.142l5.813 7.253c.311.401.372.944.158 1.405z"/></g><g><path fill="#7bc7ff" d="M42.598 23.559a19.435 19.435 0 0 1-1.317 7.024h-7.464a1.301 1.301 0 0 1-1.211-.808 1.323 1.323 0 0 1 .28-1.44l7.394-7.393a2.882 2.882 0 0 1 2.002-.878c.212 1.153.318 2.322.316 3.495z"/></g><g><path fill="#af875a" d="M54.452 32.34V49.9a4.826 4.826 0 0 1-4.823 4.83H21.525a4.826 4.826 0 0 1-4.83-4.823V25.315c-.003-.26.02-.519.07-.773a3.746 3.746 0 0 0 3.653 2.968h29.204a4.826 4.826 0 0 1 4.83 4.822z"/></g><g><path fill="#d8b16c" d="M42.194 27.51a19.317 19.317 0 0 1-18.913 15.366 19.026 19.026 0 0 1-6.586-1.16V25.316c-.003-.26.02-.519.07-.773a3.746 3.746 0 0 0 3.653 2.968z"/></g><g><path fill="#dea101" d="M54.452 37.608v7.902a1.326 1.326 0 0 1-1.317 1.317h-6.586a5.268 5.268 0 1 1 0-10.537h6.586a1.336 1.336 0 0 1 1.317 1.317z"/></g><g><path fill="#ffcb03" d="M54.364 37.15a19.265 19.265 0 0 1-12.258 7.236 5.268 5.268 0 0 1 4.443-8.096h6.586a1.336 1.336 0 0 1 1.229.86z"/></g></g></g></g></svg>