<svg xmlns="http://www.w3.org/2000/svg" width="34" height="49" viewBox="0 0 34 49"><defs><linearGradient id="6qh8a" x1="12.82" x2="33.32" y1="26.07" y2="26.07" gradientUnits="userSpaceOnUse"><stop offset="0" stop-color="#dea101"/><stop offset=".01" stop-color="#dfa307"/><stop offset=".09" stop-color="#e3b02a"/><stop offset=".18" stop-color="#e6ba48"/><stop offset=".28" stop-color="#e9c360"/><stop offset=".38" stop-color="#ebca73"/><stop offset=".51" stop-color="#edce80"/><stop offset=".67" stop-color="#eed188"/><stop offset="1" stop-color="#eed28a"/></linearGradient><linearGradient id="6qh8e" x1="32.59" x2="34.3" y1="37.93" y2="37.93" gradientUnits="userSpaceOnUse"><stop offset="0" stop-color="#40078a"/><stop offset=".21" stop-color="#4a3f9b"/><stop offset=".49" stop-color="#5684b0"/><stop offset=".72" stop-color="#5fb7c0"/><stop offset=".9" stop-color="#65d6c9"/><stop offset="1" stop-color="#67e2cd"/></linearGradient><clipPath id="6qh8b"><path d="M23.45 49a16.165 16.165 0 0 0 6.992-5.302c2.91-3.8 3.335-8.118 2.498-12.666a31.318 31.318 0 0 0-4.07-10.138A8095.94 8095.94 0 0 0 17.457 1.453c-.124-.213-.271-.413-.466-.713a23.62 23.62 0 0 0-3.735 9.155 25.726 25.726 0 0 0 3.983 19.11c2.115 3.259 4.035 6.646 5.891 10.057 1.697 3.105 2.569 6.38.318 9.938z"/></clipPath><clipPath id="6qh8c"><path d="M23.45 49a16.165 16.165 0 0 0 6.992-5.302c2.91-3.805 3.335-8.118 2.498-12.666a31.318 31.318 0 0 0-4.07-10.138A8095.94 8095.94 0 0 0 17.457 1.453c-.124-.213-.271-.413-.466-.713a23.62 23.62 0 0 0-3.735 9.155 25.726 25.726 0 0 0 3.983 19.11c2.115 3.259 4.035 6.646 5.891 10.057 1.697 3.105 2.569 6.38.318 9.938z"/></clipPath><clipPath id="6qh8d"><path d="M23.45 49a16.165 16.165 0 0 0 6.992-5.302c2.91-3.8 3.335-8.118 2.498-12.666a31.318 31.318 0 0 0-4.07-10.138A8095.94 8095.94 0 0 0 17.457 1.453c-.124-.213-.271-.413-.466-.713a23.62 23.62 0 0 0-3.735 9.155 25.726 25.726 0 0 0 3.983 19.11c2.115 3.259 4.035 6.646 5.891 10.057 1.697 3.105 2.569 6.38.318 9.938z"/></clipPath></defs><g><g opacity=".2"><path fill="url(#6qh8a)" d="M23.45 49a16.165 16.165 0 0 0 6.992-5.302c2.91-3.805 3.335-8.118 2.498-12.666a31.318 31.318 0 0 0-4.07-10.138A8095.94 8095.94 0 0 0 17.457 1.453c-.124-.213-.271-.413-.466-.713a23.62 23.62 0 0 0-3.735 9.155 25.726 25.726 0 0 0 3.983 19.11c2.115 3.259 4.035 6.646 5.891 10.057 1.697 3.105 2.569 6.38.318 9.938z"/></g><g opacity=".4"><g opacity=".4"><g opacity=".4"><g opacity=".4"/><g clip-path="url(#6qh8b)" opacity=".4"><g opacity=".16"><path fill="#dea101" d="M16.992.763S40.31 34.697 23.473 49L10.926 32.034l4.93-17.798z"/></g></g></g></g></g><g opacity=".6"><g opacity=".6"><g opacity=".6"><g opacity=".6"/><g clip-path="url(#6qh8c)" opacity=".6"><g opacity=".36"><path fill="#dea101" d="M16.993.763s14.945 20.932 7.528 41.792c0 0-.235-1.431-2.032-4.63-1.797-3.199-4.23-7.423-5.52-9.32-1.237-1.809-3.287-8.13-3.287-8.13z"/></g></g></g></g></g><g opacity=".8"><g opacity=".8"><g opacity=".8"><g opacity=".8"/><g clip-path="url(#6qh8d)" opacity=".8"><g opacity=".64"><path fill="#dea101" d="M15.885-.71s13.55 15.824 4.801 36.567c0 0-4.371-8.248-4.807-8.742-.436-.495-3.287-14.475-3.287-14.475z"/></g><g opacity=".8"><path fill="url(#6qh8e)" d="M33.447 13.93a.884.884 0 1 0-.001-1.768.884.884 0 0 0 0 1.768z"/></g></g></g></g></g><g><path fill="#dea101" d="M10.53 49a16.165 16.165 0 0 1-6.993-5.302C.627 39.893.203 35.58 1.039 31.032A31.318 31.318 0 0 1 5.11 20.894c3.798-6.485 7.601-12.965 11.411-19.441.124-.213.271-.413.472-.713a23.696 23.696 0 0 1 3.729 9.155 25.291 25.291 0 0 1-3.983 19.11c-2.15 3.235-4.035 6.646-5.891 10.057-1.697 3.105-2.545 6.38-.318 9.938z"/></g></g></svg>