<svg xmlns="http://www.w3.org/2000/svg" width="26" height="39" viewBox="0 0 26 39"><defs><linearGradient id="s871a" x1="9.58" x2="25.72" y1="20.69" y2="20.69" gradientUnits="userSpaceOnUse"><stop offset="0" stop-color="#dea101"/><stop offset=".01" stop-color="#dfa307"/><stop offset=".09" stop-color="#e3b02a"/><stop offset=".18" stop-color="#e6ba48"/><stop offset=".28" stop-color="#e9c360"/><stop offset=".38" stop-color="#ebca73"/><stop offset=".51" stop-color="#edce80"/><stop offset=".67" stop-color="#eed188"/><stop offset="1" stop-color="#eed28a"/></linearGradient><linearGradient id="s871e" x1="25.14" x2="26.49" y1="30.11" y2="30.11" gradientUnits="userSpaceOnUse"><stop offset="0" stop-color="#40078a"/><stop offset=".21" stop-color="#4a3f9b"/><stop offset=".49" stop-color="#5684b0"/><stop offset=".72" stop-color="#5fb7c0"/><stop offset=".9" stop-color="#65d6c9"/><stop offset="1" stop-color="#67e2cd"/></linearGradient><clipPath id="s871b"><path d="M17.945 38.74a12.728 12.728 0 0 0 5.506-4.175c2.291-2.992 2.625-6.392 1.966-9.973a24.66 24.66 0 0 0-3.205-7.983A6374.956 6374.956 0 0 0 13.227 1.3c-.097-.167-.213-.325-.366-.561A18.597 18.597 0 0 0 9.92 7.948a20.256 20.256 0 0 0 3.135 15.048c1.666 2.565 3.178 5.233 4.64 7.918 1.335 2.445 2.022 5.024.25 7.826z"/></clipPath><clipPath id="s871c"><path d="M17.945 38.74a12.728 12.728 0 0 0 5.506-4.175c2.291-2.997 2.625-6.392 1.966-9.973a24.66 24.66 0 0 0-3.205-7.983A6374.956 6374.956 0 0 0 13.227 1.3c-.097-.167-.213-.325-.366-.561A18.597 18.597 0 0 0 9.92 7.948a20.256 20.256 0 0 0 3.135 15.048c1.666 2.565 3.178 5.233 4.64 7.918 1.335 2.445 2.022 5.024.25 7.826z"/></clipPath><clipPath id="s871d"><path d="M17.945 38.74a12.728 12.728 0 0 0 5.506-4.175c2.291-2.992 2.625-6.392 1.966-9.973a24.66 24.66 0 0 0-3.205-7.983A6374.956 6374.956 0 0 0 13.227 1.3c-.097-.167-.213-.325-.366-.561A18.597 18.597 0 0 0 9.92 7.948a20.256 20.256 0 0 0 3.135 15.048c1.666 2.565 3.178 5.233 4.64 7.918 1.335 2.445 2.022 5.024.25 7.826z"/></clipPath></defs><g><g opacity=".2"><path fill="url(#s871a)" d="M17.945 38.74a12.728 12.728 0 0 0 5.506-4.175c2.291-2.997 2.625-6.392 1.966-9.973a24.66 24.66 0 0 0-3.205-7.983A6374.956 6374.956 0 0 0 13.227 1.3c-.097-.167-.213-.325-.366-.561A18.597 18.597 0 0 0 9.92 7.948a20.256 20.256 0 0 0 3.135 15.048c1.666 2.565 3.178 5.233 4.64 7.918 1.335 2.445 2.022 5.024.25 7.826z"/></g><g opacity=".4"><g opacity=".4"><g opacity=".4"><g opacity=".4"/><g clip-path="url(#s871b)" opacity=".4"><g opacity=".16"><path fill="#dea101" d="M12.86.758s18.36 26.72 5.103 37.982l-9.88-13.36 3.882-14.013z"/></g></g></g></g></g><g opacity=".6"><g opacity=".6"><g opacity=".6"><g opacity=".6"/><g clip-path="url(#s871c)" opacity=".6"><g opacity=".36"><path fill="#dea101" d="M12.86.758S24.63 17.24 18.79 33.665c0 0-.186-1.127-1.6-3.646-1.415-2.519-3.331-5.845-4.347-7.338-.974-1.424-2.588-6.402-2.588-6.402z"/></g></g></g></g></g><g opacity=".8"><g opacity=".8"><g opacity=".8"><g opacity=".8"/><g clip-path="url(#s871d)" opacity=".8"><g opacity=".64"><path fill="#dea101" d="M11.989-.401s10.668 12.46 3.78 28.792c0 0-3.442-6.494-3.785-6.884-.343-.39-2.588-11.397-2.588-11.397z"/></g><g opacity=".8"><path fill="url(#s871e)" d="M25.816 11.126a.696.696 0 1 0 0-1.392.696.696 0 0 0 0 1.392z"/></g></g></g></g></g><g><path fill="#dea101" d="M7.772 38.74a12.728 12.728 0 0 1-5.506-4.175C-.026 31.568-.36 28.173.299 24.592a24.66 24.66 0 0 1 3.205-7.983C6.495 11.503 9.49 6.4 12.49 1.3c.097-.167.213-.325.37-.561a18.658 18.658 0 0 1 2.937 7.208 19.914 19.914 0 0 1-3.136 15.048c-1.693 2.547-3.177 5.233-4.639 7.918-1.335 2.445-2.003 5.024-.25 7.826z"/></g></g></svg>