<svg xmlns="http://www.w3.org/2000/svg" width="20" height="20" viewBox="0 0 20 20"><g><g><g><path fill="#e4761b" d="M18.288 13.615l-1.095 3.699-2.148-.587z"/><path fill="none" stroke="#e4761b" stroke-miterlimit="20" stroke-width=".04" d="M18.288 13.615v0l-1.095 3.699v0l-2.148-.587v0z"/></g><g><path fill="#e4761b" d="M15.045 16.727l2.072-2.84 1.171-.272z"/><path fill="none" stroke="#e4761b" stroke-miterlimit="20" stroke-width=".04" d="M15.045 16.727v0l2.072-2.84v0l1.171-.272v0z"/></g><g><path fill="#f6851b" d="M17.714 10.108l.574 3.507-1.61-2.79zm.574 3.507l-1.61-2.79.44 3.063 1.17-.273z"/><path fill="none" stroke="#f6851b" stroke-miterlimit="20" stroke-width=".04" d="M17.714 10.108l.574 3.507-1.61-2.79zm.574 3.507l-1.61-2.79.44 3.063 1.17-.273h0z"/></g><g><path fill="#763d16" d="M18.095 8.969l-2.736-.251 2.83-.552zm-2.736-.251l2.978-1.22-.148.668z"/><path fill="none" stroke="#763d16" stroke-miterlimit="20" stroke-width=".04" d="M18.095 8.969l-2.736-.251 2.83-.552zm-2.736-.251l2.978-1.22-.148.668z"/></g><g><path fill="#763d16" d="M18.588 8.498l-.399-.332-.094.803zm-.25-1l-.149.668.502-.385zm-2.979 1.22l2.355 1.39.381-1.14z"/><path fill="none" stroke="#763d16" stroke-miterlimit="20" stroke-width=".04" d="M18.588 8.498l-.399-.332-.094.803zm-.25-1l-.149.668.502-.385zm-2.979 1.22l2.355 1.39.381-1.14z"/></g><g><path fill="#e2761b" d="M12.736 15.826l.744.237 1.565.664z"/><path fill="none" stroke="#e2761b" stroke-miterlimit="20" stroke-width=".04" d="M12.736 15.826v0l.744.237v0l1.565.664v0z"/></g><g><path fill="#763d16" d="M17.714 10.108l-3.09-1.018.735-.372zm0 0l.381-1.14.327.252z"/><path fill="none" stroke="#763d16" stroke-miterlimit="20" stroke-width=".04" d="M17.714 10.108l-3.09-1.018.735-.372zm0 0l.381-1.14.327.252z"/></g><g><path fill="#763d16" d="M16.095 5.225l-.736 3.493-.735.372z"/><path fill="none" stroke="#763d16" stroke-miterlimit="20" stroke-width=".04" d="M16.095 5.225v0l-.736 3.493v0l-.735.372v0z"/></g><g><path fill="#763d16" d="M18.337 7.498l-2.978 1.22.736-3.493z"/><path fill="none" stroke="#763d16" stroke-miterlimit="20" stroke-width=".04" d="M18.337 7.498v0l-2.978 1.22v0l.736-3.493v0z"/></g><g><path fill="#763d16" d="M16.095 5.225l3.107-.36-.865 2.633z"/><path fill="none" stroke="#763d16" stroke-miterlimit="20" stroke-width=".04" d="M16.095 5.225v0l3.107-.36v0l-.865 2.633v0z"/></g><g><path fill="#f6851b" d="M17.714 10.108l-1.036.718-2.054-1.736z"/><path fill="none" stroke="#f6851b" stroke-miterlimit="20" stroke-width=".04" d="M17.714 10.108v0l-1.036.718v0L14.624 9.09v0z"/></g><g><path fill="#763d16" d="M19.068 2.35l.134 2.516-3.107.359z"/><path fill="none" stroke="#763d16" stroke-miterlimit="20" stroke-width=".04" d="M19.068 2.35v0l.134 2.516v0l-3.107.359v0z"/></g><g><path fill="#e2761b" d="M19.068 2.35l-6.21 4.516-.082-3.063z"/><path fill="none" stroke="#e2761b" stroke-miterlimit="20" stroke-width=".04" d="M19.068 2.35v0l-6.21 4.516v0l-.082-3.063v0z"/></g><g><path fill="#f6851b" d="M8.158 3.435l4.618.368.081 3.063z"/><path fill="none" stroke="#f6851b" stroke-miterlimit="20" stroke-width=".04" d="M8.158 3.435v0l4.618.368v0l.081 3.063v0z"/></g><g><path fill="#763d16" d="M14.624 9.09l-1.767-2.224 3.238-1.641z"/><path fill="none" stroke="#763d16" stroke-miterlimit="20" stroke-width=".04" d="M14.624 9.09v0l-1.767-2.224v0l3.238-1.641v0z"/></g><g><path fill="#e4761b" d="M14.624 9.09l2.054 1.736-2.884.318z"/><path fill="none" stroke="#e4761b" stroke-miterlimit="20" stroke-width=".04" d="M14.624 9.09v0l2.054 1.736v0l-2.884.318v0z"/></g><g><path fill="#e4761b" d="M13.794 11.144l-.937-4.278 1.767 2.224z"/><path fill="none" stroke="#e4761b" stroke-miterlimit="20" stroke-width=".04" d="M13.794 11.144v0l-.937-4.278v0l1.767 2.224v0z"/></g><g><path fill="#763d16" d="M16.095 5.225l-3.238 1.64 6.211-4.515z"/><path fill="none" stroke="#763d16" stroke-miterlimit="20" stroke-width=".04" d="M16.095 5.225v0l-3.238 1.64v0l6.211-4.515v0z"/></g><g><path fill="#c0ad9e" d="M8.198 16.655l1.466 1.529-1.995-1.816z"/><path fill="none" stroke="#c0ad9e" stroke-miterlimit="20" stroke-width=".04" d="M8.198 16.655v0l1.466 1.529v0L7.67 16.368v0z"/></g><g><path fill="#cd6116" d="M15.045 16.727l.696-2.641 1.376-.198z"/><path fill="none" stroke="#cd6116" stroke-miterlimit="20" stroke-width=".04" d="M15.045 16.727v0l.696-2.641v0l1.376-.198v0z"/></g><g><path fill="#e2761b" d="M2.252 9.296L4.79 6.628l-2.21 2.35z"/><path fill="none" stroke="#e2761b" stroke-miterlimit="20" stroke-width=".04" d="M2.252 9.296v0L4.79 6.628v0l-2.21 2.35v0z"/></g><g><path fill="#f6851b" d="M12.857 6.866l-2.47-.081-2.229-3.35zm4.26 7.022l-1.376.198.937-3.26z"/><path fill="none" stroke="#f6851b" stroke-miterlimit="20" stroke-width=".04" d="M12.857 6.866l-2.47-.081-2.229-3.35zm4.26 7.022l-1.376.198.937-3.26z"/></g><g><path fill="#e4751f" d="M16.678 10.826l-.937 3.26-.077-1.592z"/><path fill="none" stroke="#e4751f" stroke-miterlimit="20" stroke-width=".04" d="M16.678 10.826v0l-.937 3.26v0l-.077-1.592v0z"/></g><g><path fill="#cd6116" d="M13.794 11.144l2.884-.318-1.014 1.668z"/><path fill="none" stroke="#cd6116" stroke-miterlimit="20" stroke-width=".04" d="M13.794 11.144v0l2.884-.318v0l-1.014 1.668v0z"/></g><g><path fill="#f6851b" d="M10.386 6.785l2.471.08.937 4.279z"/><path fill="none" stroke="#f6851b" stroke-miterlimit="20" stroke-width=".04" d="M10.386 6.785v0l2.471.08v0l.937 4.279v0z"/></g><g><path fill="#e4761b" d="M8.153 17.592L2.36 19.386l-1.157-4.417zm2.233-10.807L3.718.615l4.44 2.82z"/><path fill="none" stroke="#e4761b" stroke-miterlimit="20" stroke-width=".04" d="M8.153 17.592L2.36 19.386l-1.157-4.417zm2.233-10.807L3.718.615l4.44 2.82z"/></g><g><path fill="#763d16" d="M3.113 10.4l2.188-1.718 1.834.426z"/><path fill="none" stroke="#763d16" stroke-miterlimit="20" stroke-width=".04" d="M3.113 10.4v0l2.188-1.718v0l1.834.426v0z"/></g><g><path fill="#763d16" d="M7.135 9.108l-1.834-.426.982-4.054z"/><path fill="none" stroke="#763d16" stroke-miterlimit="20" stroke-width=".04" d="M7.135 9.108v0l-1.834-.426v0l.982-4.054v0z"/></g><g><path fill="#763d16" d="M2.58 8.978L5.3 8.682 3.113 10.4z"/><path fill="none" stroke="#763d16" stroke-miterlimit="20" stroke-width=".04" d="M2.58 8.978v0L5.3 8.682v0L3.113 10.4v0z"/></g><g><path fill="#cd6116" d="M15.664 12.494l-1.13-.57-.74-.78z"/><path fill="none" stroke="#cd6116" stroke-miterlimit="20" stroke-width=".04" d="M15.664 12.494v0l-1.13-.57v0l-.74-.78v0z"/></g><g><path fill="#763d16" d="M2.58 8.978L2.385 7.96l2.915.722z"/><path fill="none" stroke="#763d16" stroke-miterlimit="20" stroke-width=".04" d="M2.58 8.978v0L2.385 7.96v0l2.915.722v0z"/></g><g><path fill="#233447" d="M14.301 13.207l.233-1.283 1.13.57z"/><path fill="none" stroke="#233447" stroke-miterlimit="20" stroke-width=".04" d="M14.301 13.207v0l.233-1.283v0l1.13.57v0z"/></g><g><path fill="#f6851b" d="M15.741 14.086l-1.44-.88 1.363-.712z"/><path fill="none" stroke="#f6851b" stroke-miterlimit="20" stroke-width=".04" d="M15.741 14.086v0l-1.44-.88v0l1.363-.712v0z"/></g><g><path fill="#763d16" d="M6.283 4.628l4.103 2.157-3.25 2.323zm0 0l-.982 4.054L2.15 7.104zm-.982 4.054L2.386 7.96l-.237-.856z"/><path fill="none" stroke="#763d16" stroke-miterlimit="20" stroke-width=".04" d="M6.283 4.628l4.103 2.157-3.25 2.323zm0 0l-.982 4.054L2.15 7.104zm-.982 4.054L2.386 7.96l-.237-.856z"/></g><g><path fill="#e4761b" d="M7.341 11.117l-.206-2.01 4.7 2.104zm3.045-4.332l-3.25 2.323 4.7 2.103z"/><path fill="none" stroke="#e4761b" stroke-miterlimit="20" stroke-width=".04" d="M7.341 11.117l-.206-2.01 4.7 2.104zm3.045-4.332l-3.25 2.323 4.7 2.103z"/></g><g><path fill="#f6851b" d="M13.794 11.144l-1.959.067-1.449-4.426zM3.114 10.4l4.021-1.292.206 2.009z"/><path fill="none" stroke="#f6851b" stroke-miterlimit="20" stroke-width=".04" d="M13.794 11.144l-1.959.067-1.449-4.426zM3.114 10.4l4.021-1.292.206 2.009z"/></g><g><path fill="#cd6116" d="M14.534 11.924l-.233 1.283-.507-2.063z"/><path fill="none" stroke="#cd6116" stroke-miterlimit="20" stroke-width=".04" d="M14.534 11.924v0l-.233 1.283v0l-.507-2.063v0z"/></g><g><path fill="#763d16" d="M3.718.615l6.668 6.17-4.103-2.157z"/><path fill="none" stroke="#763d16" stroke-miterlimit="20" stroke-width=".04" d="M3.718.615v0l6.668 6.17v0L6.283 4.628v0z"/></g><g><path fill="#e4761b" d="M1.202 14.969l5.624-.233 1.327 2.856z"/><path fill="none" stroke="#e4761b" stroke-miterlimit="20" stroke-width=".04" d="M1.202 14.969v0l5.624-.233v0l1.327 2.856v0z"/></g><g><path fill="#cd6116" d="M8.153 17.592l-1.327-2.856 2.762-.135z"/><path fill="none" stroke="#cd6116" stroke-miterlimit="20" stroke-width=".04" d="M8.153 17.592v0l-1.327-2.856v0l2.762-.135v0z"/></g><g><path fill="#f6851b" d="M12.386 12.583l-.55-1.372 1.958-.067zm1.408-1.44l.368 1.337-1.776.103zm-6.968 3.593l-5.624.233 6.14-3.852zm.515-3.62L1.202 14.97l1.911-4.57zm6.96 2.09l1.44.88.793 1.87z"/><path fill="none" stroke="#f6851b" stroke-miterlimit="20" stroke-width=".04" d="M12.386 12.583l-.55-1.372 1.958-.067zm1.408-1.44l.368 1.337-1.776.103zm-6.968 3.593l-5.624.233 6.14-3.852zm.515-3.62L1.202 14.97l1.911-4.57zm6.96 2.09l1.44.88.793 1.87z"/></g><g><path fill="#c0ad9e" d="M9.664 18.184l-1.51-.592 5.255.884z"/><path fill="none" stroke="#c0ad9e" stroke-miterlimit="20" stroke-width=".04" d="M9.664 18.184v0l-1.51-.592v0l5.255.884v0z"/></g><g><path fill="#763d16" d="M3.113 10.4l-.86-1.104.326-.318z"/><path fill="none" stroke="#763d16" stroke-miterlimit="20" stroke-width=".04" d="M3.113 10.4v0l-.86-1.104v0l.326-.318v0z"/></g><g><path fill="#d7c1b3" d="M14.005 17.82l-.596.656-5.256-.884z"/><path fill="none" stroke="#d7c1b3" stroke-miterlimit="20" stroke-width=".04" d="M14.005 17.82v0l-.596.656v0l-5.256-.884v0z"/></g><g><path fill="#e4761b" d="M14.288 16.216l-6.135 1.376L9.588 14.6z"/><path fill="none" stroke="#e4761b" stroke-miterlimit="20" stroke-width=".04" d="M14.288 16.216v0l-6.135 1.376v0L9.588 14.6v0z"/></g><g><path fill="#d7c1b3" d="M8.153 17.592l6.135-1.376-.283 1.605z"/><path fill="none" stroke="#d7c1b3" stroke-miterlimit="20" stroke-width=".04" d="M8.153 17.592v0l6.135-1.376v0l-.283 1.605v0z"/></g><g><path fill="#763d16" d="M2.386 7.96l-.403.413.596.605zm3.897-3.332l-4.336-.973.202 3.449z"/><path fill="none" stroke="#763d16" stroke-miterlimit="20" stroke-width=".04" d="M2.386 7.96l-.403.413.596.605zm3.897-3.332l-4.336-.973.202 3.449z"/></g><g><path fill="#cd6116" d="M10.83 12.099l1.005-.888-.144 2.17z"/><path fill="none" stroke="#cd6116" stroke-miterlimit="20" stroke-width=".04" d="M10.83 12.099v0l1.005-.888v0l-.144 2.17v0z"/></g><g><path fill="#cd6116" d="M11.835 11.21l-1.005.889-1.462.758z"/><path fill="none" stroke="#cd6116" stroke-miterlimit="20" stroke-width=".04" d="M11.835 11.21v0l-1.005.889v0l-1.462.758v0z"/></g><g><path fill="#f6851b" d="M16.534 15.956l-.273-.202-1.96-2.547z"/><path fill="none" stroke="#f6851b" stroke-miterlimit="20" stroke-width=".04" d="M16.534 15.956v0l-.273-.202v0l-1.96-2.547v0z"/></g><g><path fill="#cd6116" d="M9.368 12.857l-2.027-1.74 4.494.094z"/><path fill="none" stroke="#cd6116" stroke-miterlimit="20" stroke-width=".04" d="M9.368 12.857v0l-2.027-1.74v0l4.494.094v0z"/></g><g><path fill="#e4751f" d="M11.691 13.382l.144-2.171.551 1.372z"/><path fill="none" stroke="#e4751f" stroke-miterlimit="20" stroke-width=".04" d="M11.691 13.382v0l.144-2.171v0l.551 1.372v0z"/></g><g><path fill="#763d16" d="M1.785 7.444l.364-.34.237.856z"/><path fill="none" stroke="#763d16" stroke-miterlimit="20" stroke-width=".04" d="M1.785 7.444v0l.364-.34v0l.237.856v0z"/></g><g><path fill="#233447" d="M11.691 13.382l-2.323-.525 1.462-.758z"/><path fill="none" stroke="#233447" stroke-miterlimit="20" stroke-width=".04" d="M11.691 13.382v0l-2.323-.525v0l1.462-.758v0z"/></g><g><path fill="#763d16" d="M6.283 4.628l-4.336-.973L3.718.615z"/><path fill="none" stroke="#763d16" stroke-miterlimit="20" stroke-width=".04" d="M6.283 4.628v0l-4.336-.973v0L3.718.615v0z"/></g><g><path fill="#c0ad9e" d="M13.41 18.476l.245.672-3.99-.964z"/><path fill="none" stroke="#c0ad9e" stroke-miterlimit="20" stroke-width=".04" d="M13.41 18.476v0l.245.672v0l-3.99-.964v0z"/></g><g><path fill="#f6851b" d="M9.588 14.6l-.22-1.743 2.323.525z"/><path fill="none" stroke="#f6851b" stroke-miterlimit="20" stroke-width=".04" d="M9.588 14.6v0l-.22-1.743v0l2.323.525v0z"/></g><g><path fill="#e4751f" d="M7.341 11.117l2.027 1.74.22 1.744z"/><path fill="none" stroke="#e4751f" stroke-miterlimit="20" stroke-width=".04" d="M7.341 11.117v0l2.027 1.74v0l.22 1.744v0z"/></g><g><path fill="#f6851b" d="M7.341 11.117L9.588 14.6l-2.762.135zm5.045 1.466l1.776-.103 2.1 3.274z"/><path fill="none" stroke="#f6851b" stroke-miterlimit="20" stroke-width=".04" d="M7.341 11.117L9.588 14.6l-2.762.135zm5.045 1.466l1.776-.103 2.1 3.274z"/></g><g><path fill="#e4751f" d="M12.386 12.583l2.207 3.359-2.902-2.56z"/><path fill="none" stroke="#e4751f" stroke-miterlimit="20" stroke-width=".04" d="M12.386 12.583v0l2.207 3.359v0l-2.902-2.56v0z"/></g><g><path fill="#f6851b" d="M11.691 13.382l2.902 2.56-.305.274z"/><path fill="none" stroke="#f6851b" stroke-miterlimit="20" stroke-width=".04" d="M11.691 13.382v0l2.902 2.56v0l-.305.274v0z"/></g><g><path fill="#f6851b" d="M12.386 12.583l2.207 3.359 1.668-.188zm-.695.799L9.588 14.6l4.7 1.615z"/><path fill="none" stroke="#f6851b" stroke-miterlimit="20" stroke-width=".04" d="M12.386 12.583l2.207 3.359 1.668-.188zm-.695.799L9.588 14.6l4.7 1.615z"/></g><g><path fill="#c0ad9e" d="M14.005 17.82l-.596.656.246.672zm-.35 1.328l2.328-.376.717-1.44z"/><path fill="none" stroke="#c0ad9e" stroke-miterlimit="20" stroke-width=".04" d="M14.005 17.82l-.596.656.246.672zm-.35 1.328l2.328-.376.717-1.44z"/></g><g><path fill="#c0ad9e" d="M13.655 19.148l.79-1.502 2.255-.314zm.35-1.327l.44-.175-.79 1.502z"/><path fill="none" stroke="#c0ad9e" stroke-miterlimit="20" stroke-width=".04" d="M13.655 19.148l.79-1.502 2.255-.314zm.35-1.327l.44-.175-.79 1.502z"/></g><g><path fill="#161616" d="M16.261 15.754l.551.336-1.677.202z"/><path fill="none" stroke="#161616" stroke-miterlimit="20" stroke-width=".04" d="M16.261 15.754v0l.551.336v0l-1.677.202v0z"/></g><g><path fill="#161616" d="M14.942 16.557l2.041-.247-.283 1.022zm.193-.265l-.542-.35 1.668-.188z"/><path fill="none" stroke="#161616" stroke-miterlimit="20" stroke-width=".04" d="M14.942 16.557l2.041-.247-.283 1.022zm.193-.265l-.542-.35 1.668-.188z"/></g><g><path fill="#161616" d="M14.942 16.557l2.041-.247-.17-.22zm.193-.265l-.542-.35-.305.274zm-.847-.076l-.283 1.605.44-.175zm.654.34l-.497 1.09 2.255-.314z"/><path fill="none" stroke="#161616" stroke-miterlimit="20" stroke-width=".04" d="M14.942 16.557l2.041-.247-.17-.22zm.193-.265l-.542-.35-.305.274zm-.847-.076l-.283 1.605.44-.175zm.654.34l-.497 1.09 2.255-.314z"/></g><g><path fill="#161616" d="M14.288 16.216l.654.34-.497 1.09zm.654.34l.193-.264 1.677-.202z"/><path fill="none" stroke="#161616" stroke-miterlimit="20" stroke-width=".04" d="M14.288 16.216l.654.34-.497 1.09zm.654.34l.193-.264 1.677-.202z"/></g><g><path fill="#161616" d="M15.135 16.292l-.193.265-.654-.341z"/><path fill="none" stroke="#161616" stroke-miterlimit="20" stroke-width=".04" d="M15.135 16.292v0l-.193.265v0l-.654-.341v0z"/></g></g></g></svg>