<svg xmlns="http://www.w3.org/2000/svg" width="14" height="12" viewBox="0 0 14 12"><g><g><g><path fill="#333" d="M4.772 3.724c0-1.133.353-2.184.955-3.048a5.342 5.342 0 1 0 4.94 8.361 5.341 5.341 0 0 1-5.895-5.313z"/></g><g><path fill="#333" d="M11.582 2.388l.067.26a2.391 2.391 0 0 0 1.578 1.667c-.775.25-1.37.878-1.578 1.665l-.067.26-.069-.26a2.39 2.39 0 0 0-1.578-1.665 2.39 2.39 0 0 0 1.578-1.667z"/></g><g><g><path fill="#333" d="M8.678.67l.035.131c.104.398.405.715.797.842a1.205 1.205 0 0 0-.797.841l-.035.131-.035-.13a1.204 1.204 0 0 0-.796-.842c.392-.127.692-.444.796-.842z"/></g><g><g><path fill="#333" d="M4.451 3.725a5.67 5.67 0 0 0 5.528 5.66 5.014 5.014 0 0 1-3.697 1.624 5.026 5.026 0 0 1-5.021-5.02 5.026 5.026 0 0 1 3.83-4.88 5.665 5.665 0 0 0-.64 2.616zm6.217 4.992l-.033.001a5.026 5.026 0 0 1-5.542-4.993c0-1.032.31-2.022.898-2.866a.321.321 0 1 0-.263-.504l-.033.002a5.649 5.649 0 0 0-3.608 1.828A5.65 5.65 0 0 0 .62 5.989a5.67 5.67 0 0 0 5.663 5.662c1.852 0 3.59-.909 4.649-2.43a.322.322 0 0 0 .014-.346.322.322 0 0 0-.277-.158z"/></g><g><path fill="#333" d="M12.484 4.314c-.38.245-.688.577-.903.974a2.668 2.668 0 0 0-.902-.974c.38-.245.686-.577.902-.974.215.397.523.73.903.974zm.84-.306a2.058 2.058 0 0 1-1.364-1.442l-.069-.26a.32.32 0 0 0-.62 0l-.069.26a2.056 2.056 0 0 1-1.366 1.442.321.321 0 0 0 0 .611 2.059 2.059 0 0 1 1.366 1.443l.069.259a.32.32 0 0 0 .62 0l.069-.26a2.06 2.06 0 0 1 1.365-1.442.32.32 0 0 0 0-.61z"/></g><g><path fill="#333" d="M8.485 1.643c.07-.061.136-.13.193-.204.058.074.123.143.193.204-.07.062-.135.13-.193.204a1.453 1.453 0 0 0-.193-.204zm-.737.306a.88.88 0 0 1 .585.617l.035.131a.321.321 0 0 0 .62 0l.035-.13a.88.88 0 0 1 .584-.618.32.32 0 0 0 0-.61.882.882 0 0 1-.584-.619L8.989.59a.322.322 0 0 0-.621 0l-.035.13a.883.883 0 0 1-.585.618.32.32 0 1 0 0 .61z"/></g></g></g></g></g></svg>