<svg xmlns="http://www.w3.org/2000/svg" width="12" height="15" viewBox="0 0 12 15"><g><g><path fill="#25a50e" d="M1.604 11.16a.408.408 0 0 1-.321-.157A5.803 5.803 0 0 1 .237 5.712 5.94 5.94 0 0 1 2.3 2.702a5.818 5.818 0 0 1 3.508-1.22l.475-.005V.01l2.54 1.867-2.536 1.866V2.264l-.49.008A5.09 5.09 0 0 0 1.196 5.39c-.3.71-.433 1.46-.393 2.227a5.05 5.05 0 0 0 1.108 2.898.395.395 0 0 1-.306.644zm1.577 1.992l2.54-1.867v1.478l.489-.007a5.082 5.082 0 0 0 4.603-3.118 5.034 5.034 0 0 0-.717-5.127.395.395 0 0 1 .304-.642c.125 0 .243.057.324.158a5.765 5.765 0 0 1 1.238 2.957 5.916 5.916 0 0 1-.198 2.332 5.926 5.926 0 0 1-2.061 3.013 5.808 5.808 0 0 1-3.509 1.216l-.476.005v1.468z"/></g></g></svg>