<svg xmlns="http://www.w3.org/2000/svg" width="14" height="14" viewBox="0 0 14 14"><g><g><g><path fill="#fff" d="M4.093 7A2.588 2.588 0 1 1 9.27 7a2.588 2.588 0 0 1-5.176 0z"/></g><g><g><g><path fill="#fff" d="M6.681 2.58a.208.208 0 0 1-.207-.207V.63a.208.208 0 0 1 .415 0v1.743a.208.208 0 0 1-.208.208z"/></g></g><g><g><path fill="#fff" d="M6.681 13.58a.208.208 0 0 1-.207-.208v-1.744a.208.208 0 0 1 .415 0v1.744a.208.208 0 0 1-.208.208z"/></g></g></g><g><g><g><path fill="#fff" d="M2.054 7.208H.31a.208.208 0 1 1 0-.415h1.744a.207.207 0 1 1 0 .415z"/></g></g><g><g><path fill="#fff" d="M13.052 7.208H11.31a.208.208 0 1 1 0-.415h1.743a.207.207 0 1 1 0 .415z"/></g></g></g><g><g><g><path fill="#fff" d="M1.81 12.08a.207.207 0 0 1-.147-.354l1.234-1.234a.207.207 0 1 1 .293.294l-1.233 1.233a.206.206 0 0 1-.147.06z"/></g></g><g><g><path fill="#fff" d="M10.32 3.57a.207.207 0 0 1-.147-.355l1.233-1.232a.208.208 0 0 1 .293.294l-1.233 1.232a.207.207 0 0 1-.146.061z"/></g></g></g><g><g><g><path fill="#fff" d="M3.043 3.57a.207.207 0 0 1-.146-.06L1.664 2.276a.208.208 0 0 1 .293-.294L3.19 3.216a.208.208 0 0 1-.147.354z"/></g></g><g><g><path fill="#fff" d="M11.552 12.08a.206.206 0 0 1-.146-.061l-1.233-1.233a.207.207 0 1 1 .293-.293l1.233 1.232a.208.208 0 0 1-.147.354z"/></g></g></g><g><g><path fill="#fff" d="M6.681 10.285A3.287 3.287 0 0 1 3.398 7 3.288 3.288 0 0 1 6.68 3.716a3.288 3.288 0 0 1 3.285 3.285 3.288 3.288 0 0 1-3.285 3.284zm0-7.418A4.14 4.14 0 0 0 2.547 7a4.139 4.139 0 0 0 4.134 4.134A4.138 4.138 0 0 0 10.816 7 4.139 4.139 0 0 0 6.68 2.867z"/></g><g><path fill="#fff" d="M6.681 2.67a.297.297 0 0 0 .297-.297V.63a.297.297 0 0 0-.593 0v1.743c0 .164.133.297.296.297z"/></g><g><path fill="#fff" d="M6.681 11.332a.297.297 0 0 0-.296.296v1.744a.297.297 0 0 0 .593 0v-1.744a.297.297 0 0 0-.297-.296z"/></g><g><path fill="#fff" d="M2.35 7.001a.297.297 0 0 0-.296-.297H.31a.297.297 0 0 0 0 .593h1.744a.297.297 0 0 0 .296-.296z"/></g><g><path fill="#fff" d="M13.052 6.704H11.31a.297.297 0 0 0 0 .593h1.743a.297.297 0 0 0 0-.593z"/></g><g><path fill="#fff" d="M3.043 10.342a.295.295 0 0 0-.21.087l-1.232 1.233a.297.297 0 0 0 .419.42l1.233-1.234a.296.296 0 0 0-.21-.506z"/></g><g><path fill="#fff" d="M10.32 3.66c.078 0 .153-.031.209-.087l1.233-1.233a.297.297 0 0 0-.42-.42L10.11 3.153a.297.297 0 0 0 .21.506z"/></g><g><path fill="#fff" d="M2.834 3.573a.294.294 0 0 0 .419 0 .297.297 0 0 0 0-.42L2.02 1.92a.295.295 0 0 0-.42 0 .297.297 0 0 0 0 .42z"/></g><g><path fill="#fff" d="M10.529 10.43a.296.296 0 1 0-.42.419l1.233 1.232a.294.294 0 0 0 .42 0 .296.296 0 0 0 0-.419z"/></g></g></g></g></svg>