<svg xmlns="http://www.w3.org/2000/svg" width="18" height="19" viewBox="0 0 18 19"><g><g><g><path fill="#151429" d="M15.012 17.441H1.934a.88.88 0 0 1-.88-.879V7a.88.88 0 0 1 .88-.88h13.078a.88.88 0 0 1 .879.88v2.109h-1.934a2.64 2.64 0 0 0-2.637 2.637 2.64 2.64 0 0 0 2.637 2.636h1.934v2.18a.88.88 0 0 1-.88.88zm-.985-13.676v1.301H8.93v-1.3c0-.098.079-.176.176-.176h4.746c.097 0 .175.078.175.175zm-11.47.268a.175.175 0 0 1 .104-.225L8.81 1.57a.175.175 0 0 1 .225.106l.31.859h-.238c-.679 0-1.23.552-1.23 1.23v1.301H2.934zm14.388 9.119a.176.176 0 0 1-.175.176h-2.813c-.872 0-1.582-.71-1.582-1.582 0-.873.71-1.582 1.582-1.582h2.813c.097 0 .175.079.175.176zm0-6.152c0-1.043-.83-1.895-1.863-1.932V3.765c0-.678-.552-1.23-1.23-1.23h-3.388l-.437-1.216A1.222 1.222 0 0 0 9.39.62 1.222 1.222 0 0 0 8.448.58L2.3 2.817c-.31.112-.556.338-.695.637a1.222 1.222 0 0 0-.04.942l.247.674A1.936 1.936 0 0 0 0 7v9.562c0 1.066.867 1.934 1.934 1.934h13.078a1.936 1.936 0 0 0 1.933-1.934V14.37A1.232 1.232 0 0 0 18 13.152V10.34c0-.62-.46-1.133-1.055-1.218z"/></g><g><path fill="#151429" d="M13.43 11.746a.527.527 0 1 1 1.054 0 .527.527 0 0 1-1.054 0z"/></g></g></g></svg>