<svg xmlns="http://www.w3.org/2000/svg" xmlns:xlink="http://www.w3.org/1999/xlink" width="41" height="41" viewBox="0 0 41 41"><defs><style>.a{fill:none;}.b{fill:rgba(146,160,186,0.3);}.c{clip-path:url(#a);}.d{fill:#fff;}.e{fill:url(#b);}.f,.g{fill:#1da1f2;isolation:isolate;}.f{mix-blend-mode:color;}.g{opacity:0.6;mix-blend-mode:soft-light;}</style><clipPath id="a"><path class="a" d="M757.75,1016.074a13.915,13.915,0,0,0,14.01-14.01q0-.32-.014-.636a10.026,10.026,0,0,0,2.456-2.55,9.819,9.819,0,0,1-2.828.775,4.941,4.941,0,0,0,2.166-2.724,9.875,9.875,0,0,1-3.127,1.2,4.928,4.928,0,0,0-8.391,4.49,13.981,13.981,0,0,1-10.149-5.144,4.927,4.927,0,0,0,1.524,6.573,4.889,4.889,0,0,1-2.23-.616c0,.021,0,.041,0,.063a4.925,4.925,0,0,0,3.95,4.827,4.94,4.94,0,0,1-2.224.085,4.93,4.93,0,0,0,4.6,3.42,9.965,9.965,0,0,1-7.29,2.039,13.937,13.937,0,0,0,7.548,2.212" transform="translate(-750.202 -996.569)"/></clipPath><radialGradient id="b" cx="0.918" cy="0.093" r="1.164" gradientUnits="objectBoundingBox"><stop offset="0" stop-color="#d1d1d1"/><stop offset="1" stop-color="#3f3f3f"/></radialGradient></defs><g transform="translate(0.5 0.5)"><path class="b" d="M4.279-.5H35.722A4.784,4.784,0,0,1,40.5,4.279V35.722A4.784,4.784,0,0,1,35.722,40.5H4.278A4.784,4.784,0,0,1-.5,35.722V4.279A4.784,4.784,0,0,1,4.279-.5Zm31.443,40A3.783,3.783,0,0,0,39.5,35.722V4.279A3.783,3.783,0,0,0,35.722.5H4.279A3.783,3.783,0,0,0,.5,4.279V35.722A3.783,3.783,0,0,0,4.278,39.5Z"/><g transform="translate(8.202 10.41)"><g class="c"><g transform="translate(-8.425 -10.673)"><rect class="d" width="40.851" height="40.851" rx="20.426"/><rect class="e" width="40.851" height="40.851" rx="12.766"/><rect class="f" width="40.851" height="40.851" rx="20.426"/><rect class="g" width="40.851" height="40.851" rx="20.426"/></g></g></g></g></svg>