<svg xmlns="http://www.w3.org/2000/svg" xmlns:xlink="http://www.w3.org/1999/xlink" width="41" height="41" viewBox="0 0 41 41"><defs><style>.a{fill:none;}.b{clip-path:url(#a);}.c{fill:#fff;}.d{fill:url(#b);}.e,.f{fill:#0076b2;isolation:isolate;}.e{mix-blend-mode:color;}.f{opacity:0.6;mix-blend-mode:soft-light;}.g{fill:rgba(146,160,186,0.3);}</style><clipPath id="a"><path class="a" d="M993.767,998.062a2.884,2.884,0,1,1-2.883-2.883A2.886,2.886,0,0,1,993.767,998.062Zm-5.371,21.076h4.974v-16H988.4Zm17.637-16.4a5.228,5.228,0,0,0-4.706,2.585h-.066v-2.187H996.49v16h4.97v-7.917c0-2.087.4-4.109,2.985-4.109,2.55,0,2.585,2.387,2.585,4.243v7.783H1012v-8.778C1012,1006.051,1011.07,1002.736,1006.033,1002.736Z" transform="translate(-988 -995.179)"/></clipPath><radialGradient id="b" cx="0.907" cy="0.093" r="1.152" gradientUnits="objectBoundingBox"><stop offset="0" stop-color="#d7d7d7"/><stop offset="1" stop-color="#393939"/></radialGradient></defs><g transform="translate(0.167 0.5)"><g transform="translate(8 8.02)"><g class="b"><g transform="translate(-15.946 -15.966)"><rect class="c" width="55.892" height="55.892" rx="27.946"/><rect class="d" width="55.892" height="55.892" rx="17.466"/><rect class="e" width="55.892" height="55.892" rx="27.946"/><rect class="f" width="55.892" height="55.892" rx="27.946"/></g></g></g><path class="g" d="M4.279-.5H35.722A4.784,4.784,0,0,1,40.5,4.279V35.722A4.784,4.784,0,0,1,35.722,40.5H4.278A4.784,4.784,0,0,1-.5,35.722V4.279A4.784,4.784,0,0,1,4.279-.5Zm31.443,40A3.783,3.783,0,0,0,39.5,35.722V4.279A3.783,3.783,0,0,0,35.722.5H4.279A3.783,3.783,0,0,0,.5,4.279V35.722A3.783,3.783,0,0,0,4.278,39.5Z" transform="translate(0.333)"/></g></svg>