<svg xmlns="http://www.w3.org/2000/svg" width="41" height="41" viewBox="0 0 41 41"><defs><style>.a{fill:#6075f4;}.b{fill:rgba(146,160,186,0.3);}</style></defs><g transform="translate(0.167 0.5)"><path class="a" d="M1168.541,1000.071c-.722-.856-5.1-1.865-5.3-1.767s-.491,1.472-.491,1.472a13,13,0,0,0-5.5,0s-.294-1.374-.491-1.472-4.579.911-5.3,1.767c-2.65,3.141-4.025,11.191-3.239,13.252.438,1.15,5.595,3.24,6.086,3.142s1.276-1.473,1.08-1.865-1.178-.688-1.571-.884-.1-.785.393-.589a12.9,12.9,0,0,0,11.584,0c.491-.2.785.393.393.589s-1.375.491-1.571.884.589,1.767,1.08,1.865,5.648-1.992,6.086-3.142C1172.566,1011.262,1171.191,1003.212,1168.541,1000.071Zm-10.884,9.621a2.218,2.218,0,0,1-1.967.94,2.345,2.345,0,0,1-1.808-1.2,1.909,1.909,0,0,1-.318-1.026,2.649,2.649,0,0,1,.463-1.4,2.767,2.767,0,0,1,1.938-1.027,1.816,1.816,0,0,1,.578.087,2.351,2.351,0,0,1,1.591,1.5,2.013,2.013,0,0,1,.116.665A2.3,2.3,0,0,1,1157.657,1009.692Zm8.186,0a2.218,2.218,0,0,1-1.967.94,2.342,2.342,0,0,1-1.807-1.2,1.9,1.9,0,0,1-.319-1.026,2.649,2.649,0,0,1,.463-1.4,2.769,2.769,0,0,1,1.938-1.027,1.827,1.827,0,0,1,.579.087,2.352,2.352,0,0,1,1.59,1.5,2.019,2.019,0,0,1,.116.665A2.3,2.3,0,0,1,1165.843,1009.692Z" transform="translate(-1140 -987.159)"/><path class="b" d="M4.279-.5H35.722A4.784,4.784,0,0,1,40.5,4.279V35.722A4.784,4.784,0,0,1,35.722,40.5H4.278A4.784,4.784,0,0,1-.5,35.722V4.279A4.784,4.784,0,0,1,4.279-.5Zm31.443,40A3.783,3.783,0,0,0,39.5,35.722V4.279A3.783,3.783,0,0,0,35.722.5H4.279A3.783,3.783,0,0,0,.5,4.279V35.722A3.783,3.783,0,0,0,4.278,39.5Z" transform="translate(0.333)"/></g></svg>