<svg xmlns="http://www.w3.org/2000/svg" xmlns:xlink="http://www.w3.org/1999/xlink" width="41" height="41" viewBox="0 0 41 41"><defs><style>.a{fill:none;}.b{clip-path:url(#a);}.c,.g{fill:#fff;}.d{fill:url(#b);}.e,.f{fill:#e52d27;isolation:isolate;}.e{mix-blend-mode:color;}.f{opacity:0.6;mix-blend-mode:soft-light;}.g{fill-rule:evenodd;}.h{fill:rgba(146,160,186,0.3);}</style><clipPath id="a"><path class="a" d="M1250.806,1000.2a3.43,3.43,0,0,0-2.4-1.017c-3.359-.242-8.4-.242-8.4-.242h-.01s-5.038,0-8.4.242a3.432,3.432,0,0,0-2.4,1.017,5.185,5.185,0,0,0-.954,2.382,36.3,36.3,0,0,0-.24,3.884v1.821a36.321,36.321,0,0,0,.24,3.885,5.189,5.189,0,0,0,.954,2.382,4.073,4.073,0,0,0,2.646,1.026c1.92.184,8.16.241,8.16.241s5.043-.008,8.4-.251a3.429,3.429,0,0,0,2.4-1.016,5.189,5.189,0,0,0,.954-2.382,36.339,36.339,0,0,0,.24-3.885v-1.821a36.313,36.313,0,0,0-.24-3.884A5.186,5.186,0,0,0,1250.806,1000.2Z" transform="translate(-1228 -998.943)"/></clipPath><radialGradient id="b" cx="0.907" cy="0.093" r="1.152" gradientTransform="translate(0)" gradientUnits="objectBoundingBox"><stop offset="0" stop-color="#d7d7d7"/><stop offset="1" stop-color="#393939"/></radialGradient></defs><g transform="translate(0.5 0.5)"><g transform="translate(8 11.784)"><g class="b"><g transform="translate(-8 -11.56)"><rect class="c" width="40" height="40" rx="12.5"/><rect class="d" width="40" height="40" rx="12.5"/></g><g transform="translate(-10.479 -11.56)"><rect class="e" width="40" height="40" rx="12.5" transform="translate(2.479)"/><rect class="f" width="40" height="40" rx="12.5"/></g><path class="g" d="M1237.521,1003.752v6.743l6.485-3.36Z" transform="translate(-1228 -998.943)"/></g></g><path class="h" d="M4.279-.5H35.722A4.784,4.784,0,0,1,40.5,4.279V35.722A4.784,4.784,0,0,1,35.722,40.5H4.278A4.784,4.784,0,0,1-.5,35.722V4.279A4.784,4.784,0,0,1,4.279-.5Zm31.443,40A3.783,3.783,0,0,0,39.5,35.722V4.279A3.783,3.783,0,0,0,35.722.5H4.279A3.783,3.783,0,0,0,.5,4.279V35.722A3.783,3.783,0,0,0,4.278,39.5Z"/></g></svg>