<svg xmlns="http://www.w3.org/2000/svg" width="41" height="41" viewBox="0 0 41 41"><defs><style>.a{fill:#2ffc8d;}.b{fill:#03e370;}.c{fill:#10c767;}.d{fill:#00ab6c;}.e{fill:rgba(146,160,186,0.3);}</style></defs><g transform="translate(0.5 0.5)"><g transform="translate(8 9.672)"><path class="a" d="M194.023.053a.143.143,0,0,0-.223.14V16.945l7.34,3.666a.421.421,0,0,0,.66-.413V4.074a.2.2,0,0,0-.116-.19Z" transform="translate(-177.8 -0.031)"/><path class="b" d="M96.9,12.959,104.768.17a.276.276,0,0,1,.355-.1l7.6,3.8a.182.182,0,0,1,.074.256l-7.9,12.83Z" transform="translate(-88.9 -0.041)"/><path class="c" d="M5.08,3.169c-.487-.248-.652-.066-.363.4L12.2,15.726l8,4L12.246,6.81a.36.36,0,0,0-.14-.132Z" transform="translate(-4.196 -2.808)"/><path class="d" d="M8,21.2a.423.423,0,0,1-.66.413L.446,18.164A.879.879,0,0,1,0,17.446V1.438a.282.282,0,0,1,.446-.272L7.9,4.9a.185.185,0,0,1,.1.157V21.2Z" transform="translate(0 -1.028)"/></g><path class="e" d="M4.279-.5H35.722A4.784,4.784,0,0,1,40.5,4.279V35.722A4.784,4.784,0,0,1,35.722,40.5H4.278A4.784,4.784,0,0,1-.5,35.722V4.279A4.784,4.784,0,0,1,4.279-.5Zm31.443,40A3.783,3.783,0,0,0,39.5,35.722V4.279A3.783,3.783,0,0,0,35.722.5H4.279A3.783,3.783,0,0,0,.5,4.279V35.722A3.783,3.783,0,0,0,4.278,39.5Z"/></g></svg>