<svg xmlns="http://www.w3.org/2000/svg" xmlns:xlink="http://www.w3.org/1999/xlink" width="41" height="41" viewBox="0 0 41 41"><defs><style>.a{fill:rgba(146,160,186,0.3);}.b{fill:#f9c82b;}.c,.g{fill:#e5c93e;mix-blend-mode:screen;}.c{opacity:0.5;}.c,.e,.g{isolation:isolate;}.d{fill:url(#a);}.e{fill:#ffe550;opacity:0.3;mix-blend-mode:multiply;}.f{fill:url(#b);}</style><linearGradient id="a" x1="0.5" y1="0.143" x2="0.5" y2="1.479" gradientUnits="objectBoundingBox"><stop offset="0.444" stop-color="#f6bf20"/><stop offset="0.672" stop-color="#f6ab0e"/></linearGradient><linearGradient id="b" x1="0.5" y1="-0.196" x2="0.5" y2="1.101" gradientUnits="objectBoundingBox"><stop offset="0.131" stop-color="#fff457"/><stop offset="0.331" stop-color="#ffdf43"/><stop offset="0.884" stop-color="#ffd231"/></linearGradient></defs><g transform="translate(-49.5 0.5)"><path class="a" d="M4.279-.5H35.722A4.784,4.784,0,0,1,40.5,4.279V35.722A4.784,4.784,0,0,1,35.722,40.5H4.278A4.784,4.784,0,0,1-.5,35.722V4.279A4.784,4.784,0,0,1,4.279-.5Zm31.443,40A3.783,3.783,0,0,0,39.5,35.722V4.279A3.783,3.783,0,0,0,35.722.5H4.279A3.783,3.783,0,0,0,.5,4.279V35.722A3.783,3.783,0,0,0,4.278,39.5Z" transform="translate(50)"/><g transform="translate(-105.592 -360.511)"><g transform="translate(162.592 371.333)"><rect class="b" width="26" height="18.357" rx="2" transform="translate(0 0)"/><path class="c" d="M187.582,524.351l-10.98-7.114a1.858,1.858,0,0,0-2.02,0l-10.98,7.114a2.214,2.214,0,0,0-1.01,1.858v.228a1.172,1.172,0,0,0,1.172,1.172H187.42a1.172,1.172,0,0,0,1.172-1.172v-.228A2.214,2.214,0,0,0,187.582,524.351Z" transform="translate(-162.592 -509.398)"/><path class="d" d="M187.582,527.19l-10.98-7.114a1.858,1.858,0,0,0-2.02,0L163.6,527.19a2.214,2.214,0,0,0-1.01,1.858v.228a1.172,1.172,0,0,0,1.172,1.172H187.42a1.172,1.172,0,0,0,1.172-1.172v-.228A2.214,2.214,0,0,0,187.582,527.19Z" transform="translate(-162.592 -512.09)"/><path class="e" d="M162.592,394.747a2.214,2.214,0,0,0,1.01,1.858l10.98,6.26a1.858,1.858,0,0,0,2.02,0l10.98-6.26a2.214,2.214,0,0,0,1.01-1.858v-1.172h-26Z" transform="translate(-162.592 -392.423)"/><path class="f" d="M162.592,372.5a2.214,2.214,0,0,0,1.01,1.858l10.98,7.113a1.858,1.858,0,0,0,2.02,0l10.98-7.113a2.215,2.215,0,0,0,1.01-1.858h0a1.172,1.172,0,0,0-1.172-1.172H163.764a1.172,1.172,0,0,0-1.172,1.172Z" transform="translate(-162.592 -371.333)"/><path class="g" d="M163.764,371.441H187.42a1.171,1.171,0,0,1,1.17,1.13c0-.022,0-.044,0-.066a1.172,1.172,0,0,0-1.172-1.172H163.764a1.172,1.172,0,0,0-1.172,1.172c0,.022,0,.044,0,.066A1.171,1.171,0,0,1,163.764,371.441Z" transform="translate(-162.592 -371.333)"/></g></g></g></svg>