<svg xmlns="http://www.w3.org/2000/svg" width="18" height="16" viewBox="0 0 18 16"><g><g><g><g><path fill="#2ffc8d" d="M12.167.271c-.093-.043-.167 0-.167.105V12.94l5.505 2.749c.272.136.495 0 .495-.31V3.286a.151.151 0 0 0-.087-.142z"/></g><g><path fill="#03e370" d="M6 9.943L11.9.35a.207.207 0 0 1 .267-.074l5.703 2.848c.068.038.099.124.056.192L12 12.94z"/></g><g><path fill="#10c767" d="M.662.525C.297.339.173.475.39.828L6 9.943l6 3.003-5.963-9.69a.27.27 0 0 0-.105-.1z"/></g><g><path fill="#00ab6c" d="M6 15.386c0 .303-.223.445-.495.31l-5.17-2.59A.66.66 0 0 1 0 12.569V.562C0 .358.149.265.334.358l5.592 2.798A.139.139 0 0 1 6 3.274z"/></g></g></g></g></svg>