<svg xmlns="http://www.w3.org/2000/svg" viewBox="0 0 41 41"><defs><style>.cls-1{fill:#0076b2;}.cls-2{fill:#92a0ba;opacity:0.3;}</style></defs><g id="Layer_2" data-name="Layer 2"><g id="Layer_1-2" data-name="Layer 1"><path class="cls-1" d="M13.93,11.4a2.88,2.88,0,1,1-2.88-2.88h0A2.88,2.88,0,0,1,13.93,11.4ZM8.56,32.48h5v-16h-5ZM26.2,16.08a5.24,5.24,0,0,0-4.71,2.58h-.06V16.48H16.66v16h5V24.56c0-2.09.4-4.11,3-4.11s2.59,2.39,2.59,4.24v7.79h5V23.7c0-4.31-.93-7.62-6-7.62Z"/><path class="cls-2" d="M4.78,0H36.22A4.78,4.78,0,0,1,41,4.78V36.22A4.78,4.78,0,0,1,36.22,41H4.78A4.78,4.78,0,0,1,0,36.22V4.78A4.78,4.78,0,0,1,4.78,0ZM36.22,40A3.78,3.78,0,0,0,40,36.22V4.78A3.78,3.78,0,0,0,36.22,1H4.78A3.78,3.78,0,0,0,1,4.78V36.22A3.78,3.78,0,0,0,4.78,40Z"/></g></g></svg>