<svg xmlns="http://www.w3.org/2000/svg" width="19" height="18" viewBox="0 0 19 18"><defs><radialGradient id="14s9b" cx="26.81" cy="-8.06" r="48.29" gradientUnits="userSpaceOnUse"><stop offset="0" stop-color="#d7d7d7"/><stop offset="1" stop-color="#393939"/></radialGradient><clipPath id="14s9a"><path d="M14.275 5.683c3.778 0 4.475 2.487 4.475 5.718v6.584h-3.727v-5.837c0-1.392-.027-3.182-1.94-3.182-1.94 0-2.238 1.516-2.238 3.082v5.937H7.118V5.982h3.578v1.64h.05c.497-.943 1.715-1.939 3.529-1.939zm-13.228.299h3.73v12.003h-3.73zm4.028-3.804a2.164 2.164 0 1 1 0 0z"/></clipPath></defs><g><g><g><g/><g clip-path="url(#14s9a)"><g><g><path fill="#151429" d="M8.79 29.96c-11.045 0-20-8.954-20-20V8.04c0-11.045 8.955-20 20-20h1.92c11.045 0 20 8.955 20 20v1.92c0 11.046-8.955 20-20 20z"/></g><g><path fill="url(#14s9b)" d="M6.257 29.96c-9.646 0-17.466-7.82-17.466-17.466V5.507c0-9.646 7.82-17.466 17.466-17.466h6.986c9.647 0 17.467 7.82 17.467 17.466v6.987c0 9.646-7.82 17.466-17.467 17.466z"/></g></g><g><g><path fill="#0076b2" d="M8.79 29.96c-11.045 0-20-8.954-20-20V8.04c0-11.045 8.955-20 20-20h1.92c11.045 0 20 8.955 20 20v1.92c0 11.046-8.955 20-20 20z"/></g><g opacity=".6"><path fill="#0076b2" d="M8.79 29.96c-11.045 0-20-8.954-20-20V8.04c0-11.045 8.955-20 20-20h1.92c11.045 0 20 8.955 20 20v1.92c0 11.046-8.955 20-20 20z"/></g></g></g></g></g></g></svg>