<svg xmlns="http://www.w3.org/2000/svg" width="20" height="14" viewBox="0 0 20 14"><defs><linearGradient id="dmera" x1="10" x2="10" y1="7.03" y2="17.71" gradientUnits="userSpaceOnUse"><stop offset=".44" stop-color="#f6bf20"/><stop offset=".67" stop-color="#f6ab0e"/></linearGradient><linearGradient id="dmerb" x1="10" x2="10" y1="-1.42" y2="8.74" gradientUnits="userSpaceOnUse"><stop offset=".13" stop-color="#fff457"/><stop offset=".33" stop-color="#ffdf43"/><stop offset=".88" stop-color="#ffd231"/></linearGradient></defs><g><g><g><g><path fill="#f9c82b" d="M2.25 13.884a2 2 0 0 1-2-2V2.117a2 2 0 0 1 2-2h15.5a2 2 0 0 1 2 2v9.767a2 2 0 0 1-2 2z"/></g><g opacity=".5"><path fill="#e5c93e" d="M18.992 11.33l-8.234-5.335a1.393 1.393 0 0 0-1.516 0l-8.234 5.336a1.66 1.66 0 0 0-.758 1.393v.171c0 .486.394.879.879.879H18.87a.879.879 0 0 0 .88-.879v-.17a1.66 1.66 0 0 0-.759-1.394z"/></g><g><path fill="url(#dmera)" d="M18.992 11.44l-8.234-5.334a1.393 1.393 0 0 0-1.516 0L1.008 11.44a1.66 1.66 0 0 0-.758 1.394v.17c0 .486.394.88.879.88H18.87a.879.879 0 0 0 .88-.88v-.17a1.66 1.66 0 0 0-.759-1.394z"/></g><g opacity=".3"><path fill="#ffe550" d="M.25 1.86c0 .562.285 1.087.758 1.393l8.234 4.695a1.393 1.393 0 0 0 1.516 0l8.234-4.695c.473-.306.758-.83.758-1.394V.98H.25z"/></g><g><path fill="url(#dmerb)" d="M.25.995c0 .563.285 1.088.758 1.394l8.234 5.335a1.393 1.393 0 0 0 1.516 0l8.234-5.335c.473-.306.758-.83.758-1.394a.879.879 0 0 0-.879-.878H1.13A.879.879 0 0 0 .25.995z"/></g><g><path fill="#e5c93e" d="M1.129.198H18.87c.475 0 .861.376.878.847l.001-.05a.879.879 0 0 0-.879-.878H1.13A.879.879 0 0 0 .25.995l.002.05a.878.878 0 0 1 .877-.847z"/></g></g></g></g></svg>