<svg xmlns="http://www.w3.org/2000/svg" width="18" height="16" viewBox="0 0 18 16"><defs><radialGradient id="wq5sb" cx="21.96" cy="-4.35" r="35.65" gradientUnits="userSpaceOnUse"><stop offset="0" stop-color="#d1d1d1"/><stop offset="1" stop-color="#3f3f3f"/></radialGradient><clipPath id="wq5sa"><path d="M5.813 15.437c6.792 0 10.507-5.628 10.507-10.508 0-.16-.004-.318-.01-.476A7.516 7.516 0 0 0 18.15 2.54a7.363 7.363 0 0 1-2.12.581 3.706 3.706 0 0 0 1.624-2.043 7.406 7.406 0 0 1-2.345.897 3.693 3.693 0 0 0-6.293 3.368 10.485 10.485 0 0 1-7.612-3.858c-.318.545-.5 1.18-.5 1.856 0 1.28.651 2.412 1.643 3.073a3.666 3.666 0 0 1-1.673-.462V6a3.693 3.693 0 0 0 2.962 3.62 3.694 3.694 0 0 1-1.668.064 3.698 3.698 0 0 0 3.45 2.565 7.413 7.413 0 0 1-4.586 1.58c-.299 0-.593-.016-.882-.051a10.455 10.455 0 0 0 5.662 1.659"/></clipPath></defs><g><g><g><g/><g clip-path="url(#wq5sa)"><g><g><path fill="#151429" d="M8.832 23.442c-8.284 0-15-6.716-15-15v-.639c0-8.284 6.716-15 15-15h.639c8.284 0 15 6.716 15 15v.639c0 8.284-6.716 15-15 15z"/></g><g><path fill="url(#wq5sb)" d="M6.598 23.442c-7.05 0-12.766-5.716-12.766-12.766V5.569c0-7.05 5.716-12.766 12.766-12.766h5.107c7.05 0 12.766 5.716 12.766 12.766v5.107c0 7.05-5.716 12.766-12.766 12.766z"/></g></g><g><g><path fill="#1da1f2" d="M8.832 23.442c-8.284 0-15-6.716-15-15v-.639c0-8.284 6.716-15 15-15h.639c8.284 0 15 6.716 15 15v.639c0 8.284-6.716 15-15 15z"/></g><g opacity=".6"><path fill="#1da1f2" d="M8.832 23.442c-8.284 0-15-6.716-15-15v-.639c0-8.284 6.716-15 15-15h.639c8.284 0 15 6.716 15 15v.639c0 8.284-6.716 15-15 15z"/></g></g></g></g></g></g></svg>