<svg xmlns="http://www.w3.org/2000/svg" width="18" height="14" viewBox="0 0 18 14"><defs><radialGradient id="9kdlb" cx="21.21" cy="-5.04" r="34.56" gradientUnits="userSpaceOnUse"><stop offset="0" stop-color="#d7d7d7"/><stop offset="1" stop-color="#393939"/></radialGradient><clipPath id="9kdla"><path d="M17.104 1.783c-.684-.717-1.451-.72-1.803-.763C12.781.839 9.003.839 9.003.839h-.007s-3.779 0-6.298.181c-.352.042-1.118.046-1.803.763C.355 2.329.18 3.569.18 3.569S0 5.026 0 6.483v1.365c0 1.457.18 2.914.18 2.914s.175 1.24.715 1.786c.685.718 1.584.694 1.985.77 1.44.138 6.12.18 6.12.18s3.782-.005 6.301-.188c.352-.042 1.12-.044 1.803-.762.54-.546.716-1.786.716-1.786S18 9.305 18 7.848V6.483c0-1.457-.18-2.914-.18-2.914s-.176-1.24-.716-1.786z"/></clipPath></defs><g><g><g><g/><g clip-path="url(#9kdla)"><g><path fill="#151429" d="M6.5 22.168c-6.904 0-12.5-5.596-12.5-12.5v-5c0-6.903 5.596-12.5 12.5-12.5h5c6.903 0 12.5 5.597 12.5 12.5v5c0 6.904-5.597 12.5-12.5 12.5z"/></g><g><path fill="url(#9kdlb)" d="M6.5 22.168c-6.904 0-12.5-5.596-12.5-12.5v-5c0-6.903 5.596-12.5 12.5-12.5h5c6.903 0 12.5 5.597 12.5 12.5v5c0 6.904-5.597 12.5-12.5 12.5z"/></g></g><g clip-path="url(#9kdla)"><g><path fill="#e52d27" d="M6.5 22.168c-6.904 0-12.5-5.596-12.5-12.5v-5c0-6.903 5.596-12.5 12.5-12.5h5c6.903 0 12.5 5.597 12.5 12.5v5c0 6.904-5.597 12.5-12.5 12.5z"/></g><g opacity=".6"><path fill="#e52d27" d="M4.64 22.168c-6.903 0-12.5-5.596-12.5-12.5v-5c0-6.903 5.597-12.5 12.5-12.5h5c6.904 0 12.5 5.597 12.5 12.5v5c0 6.904-5.596 12.5-12.5 12.5z"/></g></g><g clip-path="url(#9kdla)"><path fill="#151429" d="M7.14 4.446v5.057l4.864-2.52z"/></g></g></g></g></svg>